Run_30002
nRows=4
nColumns=164

# SIMM Motion File Header:
name Run_30002
datacolumns 164
datarows 4
otherdata 1
range 4.39000000 4.42000000
endheader
time	pelvis_tilt	pelvis_list	pelvis_rotation	pelvis_tx	pelvis_ty	pelvis_tz	hip_flexion_r	hip_adduction_r	hip_rotation_r	knee_angle_r	ankle_angle_r	hip_flexion_l	hip_adduction_l	hip_rotation_l	knee_angle_l	ankle_angle_l	lumbar_extension	lumbar_bending	lumbar_rotation	arm_flex_r	arm_add_r	arm_rot_r	elbow_flex_r	pro_sup_r	arm_flex_l	arm_add_l	arm_rot_l	elbow_flex_l	pro_sup_l	subtalar_angle_r	mtp_angle_r	subtalar_angle_l	mtp_angle_l	wrist_flex_r	wrist_dev_r	wrist_flex_l	wrist_dev_l	LASI_tx	LASI_ty	LASI_tz	RASI_tx	RASI_ty	RASI_tz	LPSI_tx	LPSI_ty	LPSI_tz	RPSI_tx	RPSI_ty	RPSI_tz	RTH1_tx	RTH1_ty	RTH1_tz	RTH2_tx	RTH2_ty	RTH2_tz	RTH3_tx	RTH3_ty	RTH3_tz	LTH1_tx	LTH1_ty	LTH1_tz	LTH2_tx	LTH2_ty	LTH2_tz	LTH3_tx	LTH3_ty	LTH3_tz	RTB1_tx	RTB1_ty	RTB1_tz	RTB2_tx	RTB2_ty	RTB2_tz	RTB3_tx	RTB3_ty	RTB3_tz	LTB1_tx	LTB1_ty	LTB1_tz	LTB2_tx	LTB2_ty	LTB2_tz	LTB3_tx	LTB3_ty	LTB3_tz	RCAL_tx	RCAL_ty	RCAL_tz	RTOE_tx	RTOE_ty	RTOE_tz	RMT5_tx	RMT5_ty	RMT5_tz	LCAL_tx	LCAL_ty	LCAL_tz	LTOE_tx	LTOE_ty	LTOE_tz	LMT5_tx	LMT5_ty	LMT5_tz	LACR_tx	LACR_ty	LACR_tz	RACR_tx	RACR_ty	RACR_tz	CLAV_tx	CLAV_ty	CLAV_tz	C7_tx	C7_ty	C7_tz	RUA1_tx	RUA1_ty	RUA1_tz	RUA2_tx	RUA2_ty	RUA2_tz	RUA3_tx	RUA3_ty	RUA3_tz	RLEL_tx	RLEL_ty	RLEL_tz	RMEL_tx	RMEL_ty	RMEL_tz	LUA1_tx	LUA1_ty	LUA1_tz	LUA2_tx	LUA2_ty	LUA2_tz	LUA3_tx	LUA3_ty	LUA3_tz	LLEL_tx	LLEL_ty	LLEL_tz	LMEL_tx	LMEL_ty	LMEL_tz	RFAsuperior_tx	RFAsuperior_ty	RFAsuperior_tz	RFAradius_tx	RFAradius_ty	RFAradius_tz	RFAulna_tx	RFAulna_ty	RFAulna_tz	LFAsuperior_tx	LFAsuperior_ty	LFAsuperior_tz	LFAradius_tx	LFAradius_ty	LFAradius_tz	LFAulna_tx	LFAulna_ty	LFAulna_tz
      4.39000000	     -0.80412062	     -3.72291530	     -4.58954786	      1.27819427	      1.01711233	     -0.37570459	     17.78837801	      8.99094467	      5.64043946	     -3.87628625	     10.69033287	    -20.40388396	      7.32320615	      4.15178850	    -47.32846000	    -16.92946472	    -12.01053079	      8.17536151	     -4.35820899	    -52.05292307	    -12.69550412	     -7.58177272	    123.70385433	     96.10912433	    -20.80131447	    -16.32660342	      4.99285679	    129.97542024	     89.82746084	      0.00000000	      0.00000000	      0.00000000	      0.00000000	      0.00000000	      0.00000000	      0.00000000	      0.00000000	      1.29334469	      1.02984611	     -0.49577084	      1.27145612	      1.04582092	     -0.24704200	      1.11906401	      1.08834275	     -0.43389997	      1.10468605	      1.09121842	     -0.34074143	      1.25215483	      0.87028345	     -0.19092398	      1.30999592	      0.77845394	     -0.20117162	      1.27751148	      0.64026699	     -0.22399309	      1.19931713	      0.87558566	     -0.55077631	      1.21286072	      0.73679260	     -0.51116602	      1.10526150	      0.64740237	     -0.51332032	      1.40197851	      0.40658085	     -0.30330518	      1.38399654	      0.29264644	     -0.26568641	      1.42699031	      0.23408360	     -0.33213897	      0.92497939	      0.43418628	     -0.43883315	      0.85659152	      0.44541942	     -0.48358269	      0.78858596	      0.40066949	     -0.42871998	      1.34839610	      0.09097247	     -0.34116672	      1.56604354	      0.18326642	     -0.35010515	      1.56452664	      0.14273684	     -0.27919155	      0.64977148	      0.47279820	     -0.42617854	      0.65638422	      0.21819717	     -0.35743156	      0.61575864	      0.24730587	     -0.44424797	      1.30013888	      1.58348767	     -0.51173215	      1.24850944	      1.54288162	     -0.18254011	      1.31475539	      1.49798287	     -0.31448624	      1.20691821	      1.58867738	     -0.35986868	      1.13744226	      1.45851659	     -0.11969830	      1.07716862	      1.47953589	     -0.14923931	      1.05201447	      1.41414242	     -0.12144326	      0.98471720	      1.35900787	     -0.12127405	      0.97434164	      1.37259784	     -0.21411411	      1.25996099	      1.48280283	     -0.61865037	      1.17493071	      1.44354027	     -0.61543613	      1.21195923	      1.37506566	     -0.65616598	      1.19284779	      1.30469618	     -0.67573751	      1.13581285	      1.29230114	     -0.60175634	      1.05825373	      1.31114800	     -0.12455290	      1.19831557	      1.22574422	     -0.18273988	      1.15295549	      1.17272199	     -0.16813080	      1.26996671	      1.28136375	     -0.63549044	      1.38654390	      1.29359282	     -0.49879086	      1.39180071	      1.22386254	     -0.51402193
      4.40000000	     -0.06737824	     -4.07883144	     -4.49276173	      1.27812291	      1.01068855	     -0.37536478	     17.38721148	      9.45201391	      5.39315867	     -6.57405183	     10.45778407	    -19.11342053	      6.36198148	      1.55010291	    -53.78867408	    -15.93314470	    -12.89763260	      8.53463790	     -3.68666933	    -50.09592578	    -13.13441872	     -6.84714316	    122.53737991	     95.22539084	    -21.85203566	    -15.60703030	      4.52473647	    127.96242549	     90.08736761	      0.00000000	      0.00000000	      0.00000000	      0.00000000	      0.00000000	      0.00000000	      0.00000000	      0.00000000	      1.29280171	      1.02310804	     -0.49684989	      1.27139938	      1.03907163	     -0.24683495	      1.11815757	      1.08024863	     -0.43332578	      1.10435734	      1.08297742	     -0.34020936	      1.25187627	      0.86430048	     -0.19016627	      1.31210280	      0.77434926	     -0.20064925	      1.28115371	      0.63403500	     -0.22605826	      1.20112660	      0.86823094	     -0.55082160	      1.21829470	      0.72971332	     -0.51270999	      1.11267708	      0.63797955	     -0.51472305	      1.39872376	      0.39631797	     -0.30437729	      1.37694058	      0.28323301	     -0.26621191	      1.41763778	      0.22316674	     -0.33285982	      0.93107997	      0.43179753	     -0.44098657	      0.86333939	      0.44854298	     -0.48493977	      0.79280438	      0.40731762	     -0.43044480	      1.33405500	      0.08673773	     -0.34080283	      1.55444028	      0.16736051	     -0.35146531	      1.55108457	      0.12651778	     -0.28075962	      0.65926830	      0.48876635	     -0.42426181	      0.65063127	      0.23781410	     -0.36306056	      0.61015482	      0.26691976	     -0.44994274	      1.29878017	      1.57456053	     -0.51144086	      1.25018067	      1.53319427	     -0.18120915	      1.31485501	      1.48899897	     -0.31426289	      1.20700164	      1.58048462	     -0.35807300	      1.14139120	      1.44527026	     -0.11685978	      1.07974020	      1.46509731	     -0.14390180	      1.05698703	      1.39811423	     -0.11775406	      0.99097103	      1.34211185	     -0.11683294	      0.97871977	      1.35638288	     -0.20912075	      1.25440410	      1.47538987	     -0.61634420	      1.16932875	      1.43657266	     -0.61269537	      1.20439082	      1.36728283	     -0.65410142	      1.18364587	      1.29770907	     -0.67345915	      1.12804102	      1.28612995	     -0.59816140	      1.06490774	      1.29497811	     -0.12115184	      1.20510594	      1.21176758	     -0.18186690	      1.16060255	      1.15810750	     -0.16724609	      1.26069734	      1.27054265	     -0.63580036	      1.38182040	      1.27491582	     -0.50176386	      1.38289387	      1.20557449	     -0.51912197
      4.41000000	      0.46107394	     -4.56750764	     -4.37855568	      1.27772856	      1.00297981	     -0.37506821	     17.49494155	     10.06862489	      4.68795914	    -10.23555397	      8.89740022	    -17.61072493	      5.07518528	     -0.75025452	    -60.14761114	    -14.45461177	    -13.55626236	      9.06840615	     -2.97874676	    -48.04559641	    -13.64524468	     -6.08692495	    121.23260275	     94.27778304	    -22.92087715	    -14.79059621	      3.94593441	    125.78709380	     90.39729975	      0.00000000	      0.00000000	      0.00000000	      0.00000000	      0.00000000	      0.00000000	      0.00000000	      0.00000000	      1.29187252	      1.01460601	     -0.49746520	      1.27136810	      1.03112001	     -0.24640472	      1.11709280	      1.07142178	     -0.43295905	      1.10404954	      1.07428726	     -0.33998370	      1.25198759	      0.85808343	     -0.18911063	      1.31429194	      0.77006747	     -0.20183828	      1.28450486	      0.62749731	     -0.22770183	      1.20221682	      0.86010926	     -0.55100298	      1.22373013	      0.72164511	     -0.51468207	      1.12020620	      0.62755857	     -0.51669146	      1.39521972	      0.38513885	     -0.30468079	      1.36782023	      0.27307218	     -0.26694465	      1.40670628	      0.21134200	     -0.33356207	      0.93834923	      0.42853793	     -0.44338553	      0.87158651	      0.45040581	     -0.48635970	      0.79884919	      0.41302547	     -0.43204639	      1.31608232	      0.08609109	     -0.34094749	      1.54055611	      0.14650504	     -0.35249856	      1.53389617	      0.10489735	     -0.28237878	      0.67030217	      0.50306773	     -0.42196600	      0.64920219	      0.25637317	     -0.36903524	      0.60887480	      0.28547579	     -0.45598318	      1.29707787	      1.56453463	     -0.51129836	      1.25166830	      1.52232518	     -0.18020544	      1.31498508	      1.47888517	     -0.31433149	      1.20713660	      1.57122044	     -0.35655135	      1.14548319	      1.43071091	     -0.11408504	      1.08247751	      1.44918453	     -0.13846292	      1.06225326	      1.38067030	     -0.11407964	      0.99751682	      1.32375487	     -0.11206690	      0.98349918	      1.33860554	     -0.20390098	      1.24832372	      1.46694522	     -0.61347796	      1.16326387	      1.42849166	     -0.60948982	      1.19641301	      1.35853913	     -0.65164381	      1.17398447	      1.28986055	     -0.67076642	      1.11995375	      1.27898838	     -0.59419042	      1.07190150	      1.27729685	     -0.11753434	      1.21218306	      1.19644490	     -0.18107150	      1.16859466	      1.14202068	     -0.16644928	      1.25077651	      1.25893779	     -0.63594174	      1.37634083	      1.25482982	     -0.50532678	      1.37306564	      1.18617716	     -0.52476672
      4.42000000	      0.73006751	     -5.12327284	     -4.30739281	      1.27647947	      0.99406557	     -0.37477520	     18.33521948	     10.78610281	      3.62334606	    -14.90857989	      6.75637759	    -15.78523870	      3.63010683	     -2.67849877	    -66.43677644	    -12.24036693	    -14.00696336	      9.70152330	     -2.16037610	    -45.86602961	    -14.18556802	     -5.32995299	    119.80078265	     93.33649235	    -23.90872788	    -13.93212113	      3.29341019	    123.40834996	     90.77782422	      0.00000000	      0.00000000	      0.00000000	      0.00000000	      0.00000000	      0.00000000	      0.00000000	      0.00000000	      1.29022885	      1.00466805	     -0.49763469	      1.27083873	      1.02201930	     -0.24572203	      1.11539257	      1.06214616	     -0.43284522	      1.10313025	      1.06544762	     -0.34004762	      1.25223289	      0.85133151	     -0.18871647	      1.31576720	      0.76524704	     -0.20347139	      1.28781704	      0.62103620	     -0.22841319	      1.20239033	      0.85109047	     -0.55100538	      1.22864926	      0.71250978	     -0.51707227	      1.12771809	      0.61614857	     -0.51909867	      1.39245782	      0.37474674	     -0.30457624	      1.35820766	      0.26386338	     -0.26816869	      1.39511184	      0.20041178	     -0.33486496	      0.94666754	      0.42454492	     -0.44593105	      0.88111145	      0.45104795	     -0.48782936	      0.80657062	      0.41784469	     -0.43367923	      1.29559328	      0.08851019	     -0.34192873	      1.52457301	      0.12353668	     -0.35364795	      1.51407642	      0.08208115	     -0.28391131	      0.68233484	      0.51572541	     -0.41976102	      0.65250883	      0.27325520	     -0.37519697	      0.61233045	      0.30235478	     -0.46221065	      1.29495341	      1.55375496	     -0.51147317	      1.25304283	      1.51042641	     -0.17934548	      1.31533413	      1.46758470	     -0.31478103	      1.20752317	      1.56083780	     -0.35537275	      1.14974136	      1.41504842	     -0.11136492	      1.08547140	      1.43196157	     -0.13303129	      1.06790424	      1.36198266	     -0.11047214	      1.00447870	      1.30410319	     -0.10701845	      0.98863368	      1.31942948	     -0.19844540	      1.24175640	      1.45762334	     -0.61005097	      1.15678052	      1.41944346	     -0.60582650	      1.18803605	      1.34891082	     -0.64868015	      1.16395040	      1.28134113	     -0.66770531	      1.11188855	      1.27097110	     -0.59002398	      1.07935183	      1.25833718	     -0.11383063	      1.21954018	      1.17995910	     -0.18035016	      1.17695002	      1.12463624	     -0.16568236	      1.24030648	      1.24667667	     -0.63597583	      1.36990340	      1.23326078	     -0.50952076	      1.36225106	      1.16565898	     -0.53090450
